<mxfile host="app.diagrams.net" modified="2023-05-19T03:06:03.776Z" agent="Mozilla/5.0 (Windows NT 10.0; Win64; x64) AppleWebKit/537.36 (KHTML, like Gecko) Chrome/112.0.0.0 Safari/537.36" etag="nPxb8OvJIP3opY5DiatB" version="21.3.2" type="github">
  <diagram id="C5RBs43oDa-KdzZeNtuy" name="Page-1">
    <mxGraphModel dx="870" dy="1623" grid="1" gridSize="10" guides="1" tooltips="1" connect="1" arrows="1" fold="1" page="1" pageScale="1" pageWidth="827" pageHeight="1169" math="0" shadow="0">
      <root>
        <mxCell id="WIyWlLk6GJQsqaUBKTNV-0" />
        <mxCell id="WIyWlLk6GJQsqaUBKTNV-1" parent="WIyWlLk6GJQsqaUBKTNV-0" />
        <mxCell id="jbVF1fTbUGlTqys_7suh-11" style="edgeStyle=orthogonalEdgeStyle;rounded=0;orthogonalLoop=1;jettySize=auto;html=1;entryX=0;entryY=0.5;entryDx=0;entryDy=0;" parent="WIyWlLk6GJQsqaUBKTNV-1" source="WIyWlLk6GJQsqaUBKTNV-7" target="jbVF1fTbUGlTqys_7suh-2" edge="1">
          <mxGeometry relative="1" as="geometry" />
        </mxCell>
        <mxCell id="WIyWlLk6GJQsqaUBKTNV-7" value="白石学園" style="rounded=1;whiteSpace=wrap;html=1;fontSize=12;glass=0;strokeWidth=1;shadow=0;" parent="WIyWlLk6GJQsqaUBKTNV-1" vertex="1">
          <mxGeometry x="30" y="-1120" width="120" height="40" as="geometry" />
        </mxCell>
        <mxCell id="jbVF1fTbUGlTqys_7suh-14" style="edgeStyle=orthogonalEdgeStyle;rounded=0;orthogonalLoop=1;jettySize=auto;html=1;exitX=0.5;exitY=1;exitDx=0;exitDy=0;entryX=0.5;entryY=0;entryDx=0;entryDy=0;" parent="WIyWlLk6GJQsqaUBKTNV-1" source="jbVF1fTbUGlTqys_7suh-0" target="jbVF1fTbUGlTqys_7suh-5" edge="1">
          <mxGeometry relative="1" as="geometry" />
        </mxCell>
        <mxCell id="jbVF1fTbUGlTqys_7suh-18" style="edgeStyle=orthogonalEdgeStyle;rounded=0;orthogonalLoop=1;jettySize=auto;html=1;exitX=1;exitY=0.5;exitDx=0;exitDy=0;entryX=0;entryY=0.5;entryDx=0;entryDy=0;" parent="WIyWlLk6GJQsqaUBKTNV-1" source="jbVF1fTbUGlTqys_7suh-0" target="jbVF1fTbUGlTqys_7suh-9" edge="1">
          <mxGeometry relative="1" as="geometry" />
        </mxCell>
        <mxCell id="jbVF1fTbUGlTqys_7suh-0" value="出席" style="rounded=1;whiteSpace=wrap;html=1;fontSize=12;glass=0;strokeWidth=1;shadow=0;" parent="WIyWlLk6GJQsqaUBKTNV-1" vertex="1">
          <mxGeometry x="200" y="-1040" width="120" height="40" as="geometry" />
        </mxCell>
        <mxCell id="jbVF1fTbUGlTqys_7suh-13" style="edgeStyle=orthogonalEdgeStyle;rounded=0;orthogonalLoop=1;jettySize=auto;html=1;exitX=0.5;exitY=1;exitDx=0;exitDy=0;entryX=0.5;entryY=0;entryDx=0;entryDy=0;" parent="WIyWlLk6GJQsqaUBKTNV-1" source="jbVF1fTbUGlTqys_7suh-2" target="jbVF1fTbUGlTqys_7suh-0" edge="1">
          <mxGeometry relative="1" as="geometry" />
        </mxCell>
        <mxCell id="jbVF1fTbUGlTqys_7suh-2" value="共通フレーム" style="rounded=1;whiteSpace=wrap;html=1;fontSize=12;glass=0;strokeWidth=1;shadow=0;" parent="WIyWlLk6GJQsqaUBKTNV-1" vertex="1">
          <mxGeometry x="200" y="-1120" width="120" height="40" as="geometry" />
        </mxCell>
        <mxCell id="jbVF1fTbUGlTqys_7suh-3" value="フレーム.php,css" style="rounded=1;whiteSpace=wrap;html=1;fontSize=12;glass=0;strokeWidth=1;shadow=0;" parent="WIyWlLk6GJQsqaUBKTNV-1" vertex="1">
          <mxGeometry x="630" y="-1120" width="120" height="40" as="geometry" />
        </mxCell>
        <mxCell id="jbVF1fTbUGlTqys_7suh-15" style="edgeStyle=orthogonalEdgeStyle;rounded=0;orthogonalLoop=1;jettySize=auto;html=1;exitX=0.5;exitY=1;exitDx=0;exitDy=0;" parent="WIyWlLk6GJQsqaUBKTNV-1" source="jbVF1fTbUGlTqys_7suh-5" target="jbVF1fTbUGlTqys_7suh-6" edge="1">
          <mxGeometry relative="1" as="geometry" />
        </mxCell>
        <mxCell id="jbVF1fTbUGlTqys_7suh-5" value="成績" style="rounded=1;whiteSpace=wrap;html=1;fontSize=12;glass=0;strokeWidth=1;shadow=0;" parent="WIyWlLk6GJQsqaUBKTNV-1" vertex="1">
          <mxGeometry x="200" y="-930" width="120" height="40" as="geometry" />
        </mxCell>
        <mxCell id="jbVF1fTbUGlTqys_7suh-16" style="edgeStyle=orthogonalEdgeStyle;rounded=0;orthogonalLoop=1;jettySize=auto;html=1;exitX=0.5;exitY=1;exitDx=0;exitDy=0;entryX=0.5;entryY=0;entryDx=0;entryDy=0;" parent="WIyWlLk6GJQsqaUBKTNV-1" source="jbVF1fTbUGlTqys_7suh-6" target="jbVF1fTbUGlTqys_7suh-7" edge="1">
          <mxGeometry relative="1" as="geometry" />
        </mxCell>
        <mxCell id="jbVF1fTbUGlTqys_7suh-6" value="時間割" style="rounded=1;whiteSpace=wrap;html=1;fontSize=12;glass=0;strokeWidth=1;shadow=0;" parent="WIyWlLk6GJQsqaUBKTNV-1" vertex="1">
          <mxGeometry x="200" y="-825" width="120" height="40" as="geometry" />
        </mxCell>
        <mxCell id="jbVF1fTbUGlTqys_7suh-17" style="edgeStyle=orthogonalEdgeStyle;rounded=0;orthogonalLoop=1;jettySize=auto;html=1;exitX=0.5;exitY=1;exitDx=0;exitDy=0;entryX=0.5;entryY=0;entryDx=0;entryDy=0;" parent="WIyWlLk6GJQsqaUBKTNV-1" source="jbVF1fTbUGlTqys_7suh-7" target="jbVF1fTbUGlTqys_7suh-8" edge="1">
          <mxGeometry relative="1" as="geometry" />
        </mxCell>
        <mxCell id="jbVF1fTbUGlTqys_7suh-7" value="更新情報" style="rounded=1;whiteSpace=wrap;html=1;fontSize=12;glass=0;strokeWidth=1;shadow=0;" parent="WIyWlLk6GJQsqaUBKTNV-1" vertex="1">
          <mxGeometry x="200" y="-720" width="120" height="40" as="geometry" />
        </mxCell>
        <mxCell id="jbVF1fTbUGlTqys_7suh-8" value="本関係" style="rounded=1;whiteSpace=wrap;html=1;fontSize=12;glass=0;strokeWidth=1;shadow=0;" parent="WIyWlLk6GJQsqaUBKTNV-1" vertex="1">
          <mxGeometry x="200" y="-610" width="120" height="40" as="geometry" />
        </mxCell>
        <mxCell id="jbVF1fTbUGlTqys_7suh-38" style="edgeStyle=orthogonalEdgeStyle;rounded=0;orthogonalLoop=1;jettySize=auto;html=1;" parent="WIyWlLk6GJQsqaUBKTNV-1" source="jbVF1fTbUGlTqys_7suh-9" edge="1">
          <mxGeometry relative="1" as="geometry">
            <mxPoint x="540" y="-1020" as="targetPoint" />
          </mxGeometry>
        </mxCell>
        <mxCell id="jbVF1fTbUGlTqys_7suh-9" value="管理者" style="rounded=1;whiteSpace=wrap;html=1;fontSize=12;glass=0;strokeWidth=1;shadow=0;" parent="WIyWlLk6GJQsqaUBKTNV-1" vertex="1">
          <mxGeometry x="370" y="-1040" width="120" height="40" as="geometry" />
        </mxCell>
        <mxCell id="jbVF1fTbUGlTqys_7suh-10" value="閲覧者" style="rounded=1;whiteSpace=wrap;html=1;fontSize=12;glass=0;strokeWidth=1;shadow=0;" parent="WIyWlLk6GJQsqaUBKTNV-1" vertex="1">
          <mxGeometry x="370" y="-990" width="120" height="40" as="geometry" />
        </mxCell>
        <mxCell id="jbVF1fTbUGlTqys_7suh-19" value="" style="endArrow=classic;html=1;rounded=0;entryX=0;entryY=0.5;entryDx=0;entryDy=0;" parent="WIyWlLk6GJQsqaUBKTNV-1" target="jbVF1fTbUGlTqys_7suh-10" edge="1">
          <mxGeometry width="50" height="50" relative="1" as="geometry">
            <mxPoint x="340" y="-1020" as="sourcePoint" />
            <mxPoint x="390" y="-920" as="targetPoint" />
            <Array as="points">
              <mxPoint x="340" y="-970" />
            </Array>
          </mxGeometry>
        </mxCell>
        <mxCell id="jbVF1fTbUGlTqys_7suh-20" value="ログイン画面" style="rounded=1;whiteSpace=wrap;html=1;fontSize=12;glass=0;strokeWidth=1;shadow=0;" parent="WIyWlLk6GJQsqaUBKTNV-1" vertex="1">
          <mxGeometry x="370" y="-1120" width="120" height="40" as="geometry" />
        </mxCell>
        <mxCell id="jbVF1fTbUGlTqys_7suh-21" value="トップページ" style="rounded=1;whiteSpace=wrap;html=1;fontSize=12;glass=0;strokeWidth=1;shadow=0;" parent="WIyWlLk6GJQsqaUBKTNV-1" vertex="1">
          <mxGeometry x="500" y="-1120" width="120" height="40" as="geometry" />
        </mxCell>
        <mxCell id="jbVF1fTbUGlTqys_7suh-22" style="edgeStyle=orthogonalEdgeStyle;rounded=0;orthogonalLoop=1;jettySize=auto;html=1;exitX=1;exitY=0.5;exitDx=0;exitDy=0;entryX=0;entryY=0.5;entryDx=0;entryDy=0;" parent="WIyWlLk6GJQsqaUBKTNV-1" target="jbVF1fTbUGlTqys_7suh-23" edge="1">
          <mxGeometry relative="1" as="geometry">
            <mxPoint x="320" y="-910" as="sourcePoint" />
          </mxGeometry>
        </mxCell>
        <mxCell id="jbVF1fTbUGlTqys_7suh-23" value="管理者" style="rounded=1;whiteSpace=wrap;html=1;fontSize=12;glass=0;strokeWidth=1;shadow=0;" parent="WIyWlLk6GJQsqaUBKTNV-1" vertex="1">
          <mxGeometry x="370" y="-930" width="120" height="40" as="geometry" />
        </mxCell>
        <mxCell id="jbVF1fTbUGlTqys_7suh-24" value="閲覧者" style="rounded=1;whiteSpace=wrap;html=1;fontSize=12;glass=0;strokeWidth=1;shadow=0;" parent="WIyWlLk6GJQsqaUBKTNV-1" vertex="1">
          <mxGeometry x="370" y="-880" width="120" height="40" as="geometry" />
        </mxCell>
        <mxCell id="jbVF1fTbUGlTqys_7suh-25" value="" style="endArrow=classic;html=1;rounded=0;entryX=0;entryY=0.5;entryDx=0;entryDy=0;" parent="WIyWlLk6GJQsqaUBKTNV-1" target="jbVF1fTbUGlTqys_7suh-24" edge="1">
          <mxGeometry width="50" height="50" relative="1" as="geometry">
            <mxPoint x="340" y="-910" as="sourcePoint" />
            <mxPoint x="390" y="-810" as="targetPoint" />
            <Array as="points">
              <mxPoint x="340" y="-860" />
            </Array>
          </mxGeometry>
        </mxCell>
        <mxCell id="jbVF1fTbUGlTqys_7suh-26" style="edgeStyle=orthogonalEdgeStyle;rounded=0;orthogonalLoop=1;jettySize=auto;html=1;exitX=1;exitY=0.5;exitDx=0;exitDy=0;entryX=0;entryY=0.5;entryDx=0;entryDy=0;" parent="WIyWlLk6GJQsqaUBKTNV-1" target="jbVF1fTbUGlTqys_7suh-27" edge="1">
          <mxGeometry relative="1" as="geometry">
            <mxPoint x="320" y="-805" as="sourcePoint" />
          </mxGeometry>
        </mxCell>
        <mxCell id="jbVF1fTbUGlTqys_7suh-27" value="管理者" style="rounded=1;whiteSpace=wrap;html=1;fontSize=12;glass=0;strokeWidth=1;shadow=0;" parent="WIyWlLk6GJQsqaUBKTNV-1" vertex="1">
          <mxGeometry x="370" y="-825" width="120" height="40" as="geometry" />
        </mxCell>
        <mxCell id="jbVF1fTbUGlTqys_7suh-28" value="閲覧者" style="rounded=1;whiteSpace=wrap;html=1;fontSize=12;glass=0;strokeWidth=1;shadow=0;" parent="WIyWlLk6GJQsqaUBKTNV-1" vertex="1">
          <mxGeometry x="370" y="-775" width="120" height="40" as="geometry" />
        </mxCell>
        <mxCell id="jbVF1fTbUGlTqys_7suh-29" value="" style="endArrow=classic;html=1;rounded=0;entryX=0;entryY=0.5;entryDx=0;entryDy=0;" parent="WIyWlLk6GJQsqaUBKTNV-1" target="jbVF1fTbUGlTqys_7suh-28" edge="1">
          <mxGeometry width="50" height="50" relative="1" as="geometry">
            <mxPoint x="340" y="-805" as="sourcePoint" />
            <mxPoint x="390" y="-705" as="targetPoint" />
            <Array as="points">
              <mxPoint x="340" y="-755" />
            </Array>
          </mxGeometry>
        </mxCell>
        <mxCell id="jbVF1fTbUGlTqys_7suh-30" style="edgeStyle=orthogonalEdgeStyle;rounded=0;orthogonalLoop=1;jettySize=auto;html=1;exitX=1;exitY=0.5;exitDx=0;exitDy=0;entryX=0;entryY=0.5;entryDx=0;entryDy=0;" parent="WIyWlLk6GJQsqaUBKTNV-1" target="jbVF1fTbUGlTqys_7suh-31" edge="1">
          <mxGeometry relative="1" as="geometry">
            <mxPoint x="320" y="-700" as="sourcePoint" />
          </mxGeometry>
        </mxCell>
        <mxCell id="jbVF1fTbUGlTqys_7suh-31" value="管理者" style="rounded=1;whiteSpace=wrap;html=1;fontSize=12;glass=0;strokeWidth=1;shadow=0;" parent="WIyWlLk6GJQsqaUBKTNV-1" vertex="1">
          <mxGeometry x="370" y="-720" width="120" height="40" as="geometry" />
        </mxCell>
        <mxCell id="jbVF1fTbUGlTqys_7suh-32" value="閲覧者" style="rounded=1;whiteSpace=wrap;html=1;fontSize=12;glass=0;strokeWidth=1;shadow=0;" parent="WIyWlLk6GJQsqaUBKTNV-1" vertex="1">
          <mxGeometry x="370" y="-670" width="120" height="40" as="geometry" />
        </mxCell>
        <mxCell id="jbVF1fTbUGlTqys_7suh-33" value="" style="endArrow=classic;html=1;rounded=0;entryX=0;entryY=0.5;entryDx=0;entryDy=0;" parent="WIyWlLk6GJQsqaUBKTNV-1" target="jbVF1fTbUGlTqys_7suh-32" edge="1">
          <mxGeometry width="50" height="50" relative="1" as="geometry">
            <mxPoint x="340" y="-700" as="sourcePoint" />
            <mxPoint x="390" y="-600" as="targetPoint" />
            <Array as="points">
              <mxPoint x="340" y="-650" />
            </Array>
          </mxGeometry>
        </mxCell>
        <mxCell id="jbVF1fTbUGlTqys_7suh-34" style="edgeStyle=orthogonalEdgeStyle;rounded=0;orthogonalLoop=1;jettySize=auto;html=1;exitX=1;exitY=0.5;exitDx=0;exitDy=0;entryX=0;entryY=0.5;entryDx=0;entryDy=0;" parent="WIyWlLk6GJQsqaUBKTNV-1" target="jbVF1fTbUGlTqys_7suh-35" edge="1">
          <mxGeometry relative="1" as="geometry">
            <mxPoint x="320" y="-590" as="sourcePoint" />
          </mxGeometry>
        </mxCell>
        <mxCell id="jbVF1fTbUGlTqys_7suh-35" value="管理者" style="rounded=1;whiteSpace=wrap;html=1;fontSize=12;glass=0;strokeWidth=1;shadow=0;" parent="WIyWlLk6GJQsqaUBKTNV-1" vertex="1">
          <mxGeometry x="370" y="-610" width="120" height="40" as="geometry" />
        </mxCell>
        <mxCell id="jbVF1fTbUGlTqys_7suh-36" value="閲覧者" style="rounded=1;whiteSpace=wrap;html=1;fontSize=12;glass=0;strokeWidth=1;shadow=0;" parent="WIyWlLk6GJQsqaUBKTNV-1" vertex="1">
          <mxGeometry x="370" y="-560" width="120" height="40" as="geometry" />
        </mxCell>
        <mxCell id="jbVF1fTbUGlTqys_7suh-37" value="" style="endArrow=classic;html=1;rounded=0;entryX=0;entryY=0.5;entryDx=0;entryDy=0;" parent="WIyWlLk6GJQsqaUBKTNV-1" target="jbVF1fTbUGlTqys_7suh-36" edge="1">
          <mxGeometry width="50" height="50" relative="1" as="geometry">
            <mxPoint x="340" y="-590" as="sourcePoint" />
            <mxPoint x="390" y="-490" as="targetPoint" />
            <Array as="points">
              <mxPoint x="340" y="-540" />
            </Array>
          </mxGeometry>
        </mxCell>
        <mxCell id="jbVF1fTbUGlTqys_7suh-39" value="ページごとのphp&lt;br&gt;一つのcss" style="rounded=1;whiteSpace=wrap;html=1;fontSize=12;glass=0;strokeWidth=1;shadow=0;" parent="WIyWlLk6GJQsqaUBKTNV-1" vertex="1">
          <mxGeometry x="540" y="-1040" width="120" height="40" as="geometry" />
        </mxCell>
        <mxCell id="jbVF1fTbUGlTqys_7suh-40" style="edgeStyle=orthogonalEdgeStyle;rounded=0;orthogonalLoop=1;jettySize=auto;html=1;" parent="WIyWlLk6GJQsqaUBKTNV-1" edge="1">
          <mxGeometry relative="1" as="geometry">
            <mxPoint x="540" y="-970" as="targetPoint" />
            <mxPoint x="490" y="-970" as="sourcePoint" />
          </mxGeometry>
        </mxCell>
        <mxCell id="jbVF1fTbUGlTqys_7suh-41" value="ページごとのphp&lt;br&gt;一つのcss" style="rounded=1;whiteSpace=wrap;html=1;fontSize=12;glass=0;strokeWidth=1;shadow=0;" parent="WIyWlLk6GJQsqaUBKTNV-1" vertex="1">
          <mxGeometry x="540" y="-990" width="120" height="40" as="geometry" />
        </mxCell>
        <mxCell id="jbVF1fTbUGlTqys_7suh-42" style="edgeStyle=orthogonalEdgeStyle;rounded=0;orthogonalLoop=1;jettySize=auto;html=1;" parent="WIyWlLk6GJQsqaUBKTNV-1" edge="1">
          <mxGeometry relative="1" as="geometry">
            <mxPoint x="540" y="-910" as="targetPoint" />
            <mxPoint x="490" y="-910" as="sourcePoint" />
          </mxGeometry>
        </mxCell>
        <mxCell id="jbVF1fTbUGlTqys_7suh-43" value="ページごとのphp&lt;br&gt;一つのcss" style="rounded=1;whiteSpace=wrap;html=1;fontSize=12;glass=0;strokeWidth=1;shadow=0;" parent="WIyWlLk6GJQsqaUBKTNV-1" vertex="1">
          <mxGeometry x="540" y="-930" width="120" height="40" as="geometry" />
        </mxCell>
        <mxCell id="jbVF1fTbUGlTqys_7suh-44" style="edgeStyle=orthogonalEdgeStyle;rounded=0;orthogonalLoop=1;jettySize=auto;html=1;" parent="WIyWlLk6GJQsqaUBKTNV-1" edge="1">
          <mxGeometry relative="1" as="geometry">
            <mxPoint x="540" y="-860" as="targetPoint" />
            <mxPoint x="490" y="-860" as="sourcePoint" />
          </mxGeometry>
        </mxCell>
        <mxCell id="jbVF1fTbUGlTqys_7suh-45" value="ページごとのphp&lt;br&gt;一つのcss" style="rounded=1;whiteSpace=wrap;html=1;fontSize=12;glass=0;strokeWidth=1;shadow=0;" parent="WIyWlLk6GJQsqaUBKTNV-1" vertex="1">
          <mxGeometry x="540" y="-880" width="120" height="40" as="geometry" />
        </mxCell>
        <mxCell id="jbVF1fTbUGlTqys_7suh-46" style="edgeStyle=orthogonalEdgeStyle;rounded=0;orthogonalLoop=1;jettySize=auto;html=1;" parent="WIyWlLk6GJQsqaUBKTNV-1" edge="1">
          <mxGeometry relative="1" as="geometry">
            <mxPoint x="540" y="-805" as="targetPoint" />
            <mxPoint x="490" y="-805" as="sourcePoint" />
          </mxGeometry>
        </mxCell>
        <mxCell id="jbVF1fTbUGlTqys_7suh-47" value="ページごとのphp&lt;br&gt;一つのcss" style="rounded=1;whiteSpace=wrap;html=1;fontSize=12;glass=0;strokeWidth=1;shadow=0;" parent="WIyWlLk6GJQsqaUBKTNV-1" vertex="1">
          <mxGeometry x="540" y="-825" width="120" height="40" as="geometry" />
        </mxCell>
        <mxCell id="jbVF1fTbUGlTqys_7suh-48" style="edgeStyle=orthogonalEdgeStyle;rounded=0;orthogonalLoop=1;jettySize=auto;html=1;" parent="WIyWlLk6GJQsqaUBKTNV-1" edge="1">
          <mxGeometry relative="1" as="geometry">
            <mxPoint x="540" y="-755" as="targetPoint" />
            <mxPoint x="490" y="-755" as="sourcePoint" />
          </mxGeometry>
        </mxCell>
        <mxCell id="jbVF1fTbUGlTqys_7suh-49" value="ページごとのphp&lt;br&gt;一つのcss" style="rounded=1;whiteSpace=wrap;html=1;fontSize=12;glass=0;strokeWidth=1;shadow=0;" parent="WIyWlLk6GJQsqaUBKTNV-1" vertex="1">
          <mxGeometry x="540" y="-775" width="120" height="40" as="geometry" />
        </mxCell>
        <mxCell id="jbVF1fTbUGlTqys_7suh-50" style="edgeStyle=orthogonalEdgeStyle;rounded=0;orthogonalLoop=1;jettySize=auto;html=1;" parent="WIyWlLk6GJQsqaUBKTNV-1" edge="1">
          <mxGeometry relative="1" as="geometry">
            <mxPoint x="540" y="-700" as="targetPoint" />
            <mxPoint x="490" y="-700" as="sourcePoint" />
          </mxGeometry>
        </mxCell>
        <mxCell id="jbVF1fTbUGlTqys_7suh-51" value="ページごとのphp&lt;br&gt;一つのcss" style="rounded=1;whiteSpace=wrap;html=1;fontSize=12;glass=0;strokeWidth=1;shadow=0;" parent="WIyWlLk6GJQsqaUBKTNV-1" vertex="1">
          <mxGeometry x="540" y="-720" width="120" height="40" as="geometry" />
        </mxCell>
        <mxCell id="jbVF1fTbUGlTqys_7suh-52" style="edgeStyle=orthogonalEdgeStyle;rounded=0;orthogonalLoop=1;jettySize=auto;html=1;" parent="WIyWlLk6GJQsqaUBKTNV-1" edge="1">
          <mxGeometry relative="1" as="geometry">
            <mxPoint x="540" y="-650" as="targetPoint" />
            <mxPoint x="490" y="-650" as="sourcePoint" />
          </mxGeometry>
        </mxCell>
        <mxCell id="jbVF1fTbUGlTqys_7suh-53" value="ページごとのphp&lt;br&gt;一つのcss" style="rounded=1;whiteSpace=wrap;html=1;fontSize=12;glass=0;strokeWidth=1;shadow=0;" parent="WIyWlLk6GJQsqaUBKTNV-1" vertex="1">
          <mxGeometry x="540" y="-670" width="120" height="40" as="geometry" />
        </mxCell>
        <mxCell id="jbVF1fTbUGlTqys_7suh-54" style="edgeStyle=orthogonalEdgeStyle;rounded=0;orthogonalLoop=1;jettySize=auto;html=1;" parent="WIyWlLk6GJQsqaUBKTNV-1" edge="1">
          <mxGeometry relative="1" as="geometry">
            <mxPoint x="540" y="-590" as="targetPoint" />
            <mxPoint x="490" y="-590" as="sourcePoint" />
          </mxGeometry>
        </mxCell>
        <mxCell id="jbVF1fTbUGlTqys_7suh-55" value="ページごとのphp&lt;br&gt;一つのcss" style="rounded=1;whiteSpace=wrap;html=1;fontSize=12;glass=0;strokeWidth=1;shadow=0;" parent="WIyWlLk6GJQsqaUBKTNV-1" vertex="1">
          <mxGeometry x="540" y="-610" width="120" height="40" as="geometry" />
        </mxCell>
        <mxCell id="jbVF1fTbUGlTqys_7suh-56" style="edgeStyle=orthogonalEdgeStyle;rounded=0;orthogonalLoop=1;jettySize=auto;html=1;" parent="WIyWlLk6GJQsqaUBKTNV-1" edge="1">
          <mxGeometry relative="1" as="geometry">
            <mxPoint x="540" y="-540" as="targetPoint" />
            <mxPoint x="490" y="-540" as="sourcePoint" />
          </mxGeometry>
        </mxCell>
        <mxCell id="jbVF1fTbUGlTqys_7suh-57" value="ページごとのphp&lt;br&gt;一つのcss" style="rounded=1;whiteSpace=wrap;html=1;fontSize=12;glass=0;strokeWidth=1;shadow=0;" parent="WIyWlLk6GJQsqaUBKTNV-1" vertex="1">
          <mxGeometry x="540" y="-560" width="120" height="40" as="geometry" />
        </mxCell>
        <mxCell id="jbVF1fTbUGlTqys_7suh-58" value="白石学園" style="rounded=1;whiteSpace=wrap;html=1;fontSize=12;glass=0;strokeWidth=1;shadow=0;" parent="WIyWlLk6GJQsqaUBKTNV-1" vertex="1">
          <mxGeometry x="54" y="40" width="120" height="40" as="geometry" />
        </mxCell>
        <mxCell id="jbVF1fTbUGlTqys_7suh-59" value="共通フレーム" style="rounded=1;whiteSpace=wrap;html=1;fontSize=12;glass=0;strokeWidth=1;shadow=0;" parent="WIyWlLk6GJQsqaUBKTNV-1" vertex="1">
          <mxGeometry x="224" y="40" width="120" height="40" as="geometry" />
        </mxCell>
        <mxCell id="jbVF1fTbUGlTqys_7suh-60" value="フレーム.php,css" style="rounded=1;whiteSpace=wrap;html=1;fontSize=12;glass=0;strokeWidth=1;shadow=0;" parent="WIyWlLk6GJQsqaUBKTNV-1" vertex="1">
          <mxGeometry x="654" y="40" width="120" height="40" as="geometry" />
        </mxCell>
        <mxCell id="jbVF1fTbUGlTqys_7suh-61" value="ログイン画面" style="rounded=1;whiteSpace=wrap;html=1;fontSize=12;glass=0;strokeWidth=1;shadow=0;" parent="WIyWlLk6GJQsqaUBKTNV-1" vertex="1">
          <mxGeometry x="394" y="40" width="120" height="40" as="geometry" />
        </mxCell>
        <mxCell id="jbVF1fTbUGlTqys_7suh-62" value="トップページ" style="rounded=1;whiteSpace=wrap;html=1;fontSize=12;glass=0;strokeWidth=1;shadow=0;" parent="WIyWlLk6GJQsqaUBKTNV-1" vertex="1">
          <mxGeometry x="524" y="40" width="120" height="40" as="geometry" />
        </mxCell>
        <mxCell id="jbVF1fTbUGlTqys_7suh-63" value="管理者" style="rounded=1;whiteSpace=wrap;html=1;fontSize=12;glass=0;strokeWidth=1;shadow=0;" parent="WIyWlLk6GJQsqaUBKTNV-1" vertex="1">
          <mxGeometry x="224" y="120" width="120" height="40" as="geometry" />
        </mxCell>
        <mxCell id="jbVF1fTbUGlTqys_7suh-64" value="閲覧者" style="rounded=1;whiteSpace=wrap;html=1;fontSize=12;glass=0;strokeWidth=1;shadow=0;" parent="WIyWlLk6GJQsqaUBKTNV-1" vertex="1">
          <mxGeometry x="230" y="565" width="120" height="40" as="geometry" />
        </mxCell>
        <mxCell id="jbVF1fTbUGlTqys_7suh-65" value="出席" style="rounded=1;whiteSpace=wrap;html=1;fontSize=12;glass=0;strokeWidth=1;shadow=0;" parent="WIyWlLk6GJQsqaUBKTNV-1" vertex="1">
          <mxGeometry x="414" y="120" width="120" height="40" as="geometry" />
        </mxCell>
        <mxCell id="jbVF1fTbUGlTqys_7suh-66" value="成績" style="rounded=1;whiteSpace=wrap;html=1;fontSize=12;glass=0;strokeWidth=1;shadow=0;" parent="WIyWlLk6GJQsqaUBKTNV-1" vertex="1">
          <mxGeometry x="414" y="190" width="120" height="40" as="geometry" />
        </mxCell>
        <mxCell id="jbVF1fTbUGlTqys_7suh-67" value="時間割" style="rounded=1;whiteSpace=wrap;html=1;fontSize=12;glass=0;strokeWidth=1;shadow=0;" parent="WIyWlLk6GJQsqaUBKTNV-1" vertex="1">
          <mxGeometry x="414" y="260" width="120" height="40" as="geometry" />
        </mxCell>
        <mxCell id="jbVF1fTbUGlTqys_7suh-68" value="更新情報" style="rounded=1;whiteSpace=wrap;html=1;fontSize=12;glass=0;strokeWidth=1;shadow=0;" parent="WIyWlLk6GJQsqaUBKTNV-1" vertex="1">
          <mxGeometry x="414" y="330" width="120" height="40" as="geometry" />
        </mxCell>
        <mxCell id="jbVF1fTbUGlTqys_7suh-69" value="本関係" style="rounded=1;whiteSpace=wrap;html=1;fontSize=12;glass=0;strokeWidth=1;shadow=0;" parent="WIyWlLk6GJQsqaUBKTNV-1" vertex="1">
          <mxGeometry x="414" y="400" width="120" height="40" as="geometry" />
        </mxCell>
        <mxCell id="jbVF1fTbUGlTqys_7suh-75" value="" style="endArrow=none;html=1;rounded=0;exitX=1;exitY=0.5;exitDx=0;exitDy=0;entryX=0;entryY=0.5;entryDx=0;entryDy=0;" parent="WIyWlLk6GJQsqaUBKTNV-1" source="jbVF1fTbUGlTqys_7suh-58" target="jbVF1fTbUGlTqys_7suh-59" edge="1">
          <mxGeometry width="50" height="50" relative="1" as="geometry">
            <mxPoint x="340" y="60" as="sourcePoint" />
            <mxPoint x="390" y="10" as="targetPoint" />
          </mxGeometry>
        </mxCell>
        <mxCell id="jbVF1fTbUGlTqys_7suh-76" value="" style="endArrow=none;html=1;rounded=0;exitX=0.5;exitY=1;exitDx=0;exitDy=0;entryX=0.5;entryY=0;entryDx=0;entryDy=0;" parent="WIyWlLk6GJQsqaUBKTNV-1" source="jbVF1fTbUGlTqys_7suh-59" target="jbVF1fTbUGlTqys_7suh-63" edge="1">
          <mxGeometry width="50" height="50" relative="1" as="geometry">
            <mxPoint x="340" y="60" as="sourcePoint" />
            <mxPoint x="390" y="10" as="targetPoint" />
          </mxGeometry>
        </mxCell>
        <mxCell id="jbVF1fTbUGlTqys_7suh-77" value="" style="endArrow=none;html=1;rounded=0;exitX=0.5;exitY=1;exitDx=0;exitDy=0;entryX=0.438;entryY=-0.059;entryDx=0;entryDy=0;entryPerimeter=0;" parent="WIyWlLk6GJQsqaUBKTNV-1" source="jbVF1fTbUGlTqys_7suh-63" target="jbVF1fTbUGlTqys_7suh-64" edge="1">
          <mxGeometry width="50" height="50" relative="1" as="geometry">
            <mxPoint x="294" y="90" as="sourcePoint" />
            <mxPoint x="294" y="130" as="targetPoint" />
          </mxGeometry>
        </mxCell>
        <mxCell id="jbVF1fTbUGlTqys_7suh-78" value="" style="endArrow=none;html=1;rounded=0;exitX=1;exitY=0.5;exitDx=0;exitDy=0;entryX=0;entryY=0.5;entryDx=0;entryDy=0;" parent="WIyWlLk6GJQsqaUBKTNV-1" source="jbVF1fTbUGlTqys_7suh-63" target="jbVF1fTbUGlTqys_7suh-69" edge="1">
          <mxGeometry width="50" height="50" relative="1" as="geometry">
            <mxPoint x="340" y="310" as="sourcePoint" />
            <mxPoint x="390" y="260" as="targetPoint" />
            <Array as="points">
              <mxPoint x="390" y="140" />
              <mxPoint x="390" y="420" />
            </Array>
          </mxGeometry>
        </mxCell>
        <mxCell id="jbVF1fTbUGlTqys_7suh-79" value="" style="endArrow=none;html=1;rounded=0;entryX=0;entryY=0.5;entryDx=0;entryDy=0;" parent="WIyWlLk6GJQsqaUBKTNV-1" target="jbVF1fTbUGlTqys_7suh-65" edge="1">
          <mxGeometry width="50" height="50" relative="1" as="geometry">
            <mxPoint x="390" y="140" as="sourcePoint" />
            <mxPoint x="410" y="140" as="targetPoint" />
          </mxGeometry>
        </mxCell>
        <mxCell id="jbVF1fTbUGlTqys_7suh-80" value="" style="endArrow=none;html=1;rounded=0;entryX=0;entryY=0.5;entryDx=0;entryDy=0;" parent="WIyWlLk6GJQsqaUBKTNV-1" edge="1">
          <mxGeometry width="50" height="50" relative="1" as="geometry">
            <mxPoint x="390" y="209.8" as="sourcePoint" />
            <mxPoint x="414" y="209.8" as="targetPoint" />
          </mxGeometry>
        </mxCell>
        <mxCell id="jbVF1fTbUGlTqys_7suh-81" value="" style="endArrow=none;html=1;rounded=0;entryX=0;entryY=0.5;entryDx=0;entryDy=0;" parent="WIyWlLk6GJQsqaUBKTNV-1" edge="1">
          <mxGeometry width="50" height="50" relative="1" as="geometry">
            <mxPoint x="390" y="279.8" as="sourcePoint" />
            <mxPoint x="414" y="279.8" as="targetPoint" />
          </mxGeometry>
        </mxCell>
        <mxCell id="jbVF1fTbUGlTqys_7suh-82" value="" style="endArrow=none;html=1;rounded=0;entryX=0;entryY=0.5;entryDx=0;entryDy=0;" parent="WIyWlLk6GJQsqaUBKTNV-1" edge="1">
          <mxGeometry width="50" height="50" relative="1" as="geometry">
            <mxPoint x="390" y="349.8" as="sourcePoint" />
            <mxPoint x="414" y="349.8" as="targetPoint" />
          </mxGeometry>
        </mxCell>
        <mxCell id="jbVF1fTbUGlTqys_7suh-83" value="出席" style="rounded=1;whiteSpace=wrap;html=1;fontSize=12;glass=0;strokeWidth=1;shadow=0;" parent="WIyWlLk6GJQsqaUBKTNV-1" vertex="1">
          <mxGeometry x="420" y="565" width="120" height="40" as="geometry" />
        </mxCell>
        <mxCell id="jbVF1fTbUGlTqys_7suh-84" value="成績" style="rounded=1;whiteSpace=wrap;html=1;fontSize=12;glass=0;strokeWidth=1;shadow=0;" parent="WIyWlLk6GJQsqaUBKTNV-1" vertex="1">
          <mxGeometry x="420" y="635" width="120" height="40" as="geometry" />
        </mxCell>
        <mxCell id="jbVF1fTbUGlTqys_7suh-85" value="時間割" style="rounded=1;whiteSpace=wrap;html=1;fontSize=12;glass=0;strokeWidth=1;shadow=0;" parent="WIyWlLk6GJQsqaUBKTNV-1" vertex="1">
          <mxGeometry x="420" y="705" width="120" height="40" as="geometry" />
        </mxCell>
        <mxCell id="jbVF1fTbUGlTqys_7suh-86" value="更新情報" style="rounded=1;whiteSpace=wrap;html=1;fontSize=12;glass=0;strokeWidth=1;shadow=0;" parent="WIyWlLk6GJQsqaUBKTNV-1" vertex="1">
          <mxGeometry x="420" y="775" width="120" height="40" as="geometry" />
        </mxCell>
        <mxCell id="jbVF1fTbUGlTqys_7suh-87" value="本関係" style="rounded=1;whiteSpace=wrap;html=1;fontSize=12;glass=0;strokeWidth=1;shadow=0;" parent="WIyWlLk6GJQsqaUBKTNV-1" vertex="1">
          <mxGeometry x="420" y="845" width="120" height="40" as="geometry" />
        </mxCell>
        <mxCell id="jbVF1fTbUGlTqys_7suh-88" value="" style="endArrow=none;html=1;rounded=0;exitX=1;exitY=0.5;exitDx=0;exitDy=0;entryX=0;entryY=0.5;entryDx=0;entryDy=0;" parent="WIyWlLk6GJQsqaUBKTNV-1" target="jbVF1fTbUGlTqys_7suh-87" edge="1">
          <mxGeometry width="50" height="50" relative="1" as="geometry">
            <mxPoint x="350" y="585" as="sourcePoint" />
            <mxPoint x="396" y="705" as="targetPoint" />
            <Array as="points">
              <mxPoint x="396" y="585" />
              <mxPoint x="396" y="865" />
            </Array>
          </mxGeometry>
        </mxCell>
        <mxCell id="jbVF1fTbUGlTqys_7suh-89" value="" style="endArrow=none;html=1;rounded=0;entryX=0;entryY=0.5;entryDx=0;entryDy=0;" parent="WIyWlLk6GJQsqaUBKTNV-1" target="jbVF1fTbUGlTqys_7suh-83" edge="1">
          <mxGeometry width="50" height="50" relative="1" as="geometry">
            <mxPoint x="396" y="585" as="sourcePoint" />
            <mxPoint x="416" y="585" as="targetPoint" />
          </mxGeometry>
        </mxCell>
        <mxCell id="jbVF1fTbUGlTqys_7suh-90" value="" style="endArrow=none;html=1;rounded=0;entryX=0;entryY=0.5;entryDx=0;entryDy=0;" parent="WIyWlLk6GJQsqaUBKTNV-1" edge="1">
          <mxGeometry width="50" height="50" relative="1" as="geometry">
            <mxPoint x="396" y="654.8" as="sourcePoint" />
            <mxPoint x="420" y="654.8" as="targetPoint" />
          </mxGeometry>
        </mxCell>
        <mxCell id="jbVF1fTbUGlTqys_7suh-91" value="" style="endArrow=none;html=1;rounded=0;entryX=0;entryY=0.5;entryDx=0;entryDy=0;" parent="WIyWlLk6GJQsqaUBKTNV-1" edge="1">
          <mxGeometry width="50" height="50" relative="1" as="geometry">
            <mxPoint x="396" y="724.8" as="sourcePoint" />
            <mxPoint x="420" y="724.8" as="targetPoint" />
          </mxGeometry>
        </mxCell>
        <mxCell id="jbVF1fTbUGlTqys_7suh-92" value="" style="endArrow=none;html=1;rounded=0;entryX=0;entryY=0.5;entryDx=0;entryDy=0;" parent="WIyWlLk6GJQsqaUBKTNV-1" edge="1">
          <mxGeometry width="50" height="50" relative="1" as="geometry">
            <mxPoint x="396" y="794.8" as="sourcePoint" />
            <mxPoint x="420" y="794.8" as="targetPoint" />
          </mxGeometry>
        </mxCell>
        <mxCell id="OwPCs2RI-KwLaJPapaK8-0" value="&lt;h1&gt;フォルダ構成図&lt;/h1&gt;&lt;div&gt;更新日：2023年5月19日（金）&lt;/div&gt;&lt;div&gt;更新者：大野俊輔&lt;/div&gt;&lt;div&gt;更新内容：新規作成&lt;/div&gt;" style="text;html=1;strokeColor=none;fillColor=none;spacing=5;spacingTop=-20;whiteSpace=wrap;overflow=hidden;rounded=0;" vertex="1" parent="WIyWlLk6GJQsqaUBKTNV-1">
          <mxGeometry x="19" y="-130" width="190" height="120" as="geometry" />
        </mxCell>
      </root>
    </mxGraphModel>
  </diagram>
</mxfile>
